<svg width="613" height="613" viewBox="0 0 613 613" fill="none" xmlns="http://www.w3.org/2000/svg">
<path d="M340.209 380.586L340.209 227.809L339.918 223.357C338.841 215.14 334.834 207.658 328.707 202.424C322.58 197.189 314.789 194.592 306.908 195.158C299.027 195.723 291.645 199.409 286.253 205.469C280.86 211.53 277.859 219.515 277.857 227.809L277.857 380.586L278.148 385.038C279.225 393.255 283.231 400.737 289.359 405.971C295.486 411.206 303.277 413.803 311.158 413.237C319.038 412.672 326.421 408.987 331.813 402.926C337.206 396.865 340.207 388.88 340.209 380.586Z" fill="#0DA6F5"/>
<path d="M352.712 495.817L368.905 479.624L371.886 476.203C376.981 469.482 379.335 461.078 378.472 452.689C377.61 444.3 373.595 436.551 367.239 431.008C360.883 425.464 352.66 422.541 344.231 422.827C335.802 423.113 327.796 426.588 321.831 432.55L305.638 448.743L300.679 453.388C261.765 487.344 202.327 485.649 164.919 448.241C155.646 439.034 148.278 428.091 143.234 416.037C138.191 403.982 135.571 391.053 135.524 377.986C135.477 364.919 138.005 351.971 142.962 339.88C147.92 327.79 155.21 316.795 164.417 307.522L180.673 290.952L183.623 287.563C188.761 280.804 191.121 272.336 190.221 263.894C189.321 255.451 185.229 247.672 178.782 242.147C172.335 236.622 164.021 233.77 155.54 234.173C147.059 234.577 139.053 238.206 133.16 244.318L117.124 260.668L111.098 267.008C52.6956 331.938 54.9865 432.456 117.846 495.315C133.234 510.769 151.516 523.041 171.647 531.431C191.779 539.82 213.365 544.162 235.175 544.208C256.984 544.255 278.589 540.005 298.756 531.702C318.923 523.399 337.257 511.205 352.712 495.817Z" fill="#0DA6F5"/>
<path d="M494.372 354.157L478.743 369.785C472.778 375.747 464.772 379.222 456.344 379.508C447.915 379.794 439.692 376.87 433.336 371.327C426.98 365.784 422.965 358.035 422.102 349.646C421.24 341.257 423.593 332.853 428.688 326.132L431.67 322.711L447.298 307.083C465.916 288.818 476.657 263.999 477.228 237.924C477.799 211.849 468.155 186.583 450.354 167.521C432.554 148.459 408.007 137.11 381.953 135.897C355.9 134.684 330.405 143.703 310.91 161.029L305.92 165.705L290.292 181.334C284.327 187.295 276.321 190.77 267.892 191.056C259.464 191.343 251.241 188.419 244.885 182.876C238.529 177.333 234.514 169.584 233.651 161.194C232.788 152.805 235.142 144.401 240.237 137.681L243.218 134.26L258.847 118.631C289.455 87.5614 331.032 69.7403 374.64 68.9986C418.248 68.2569 460.407 84.6539 492.054 114.665C523.701 144.676 542.311 185.906 543.883 229.492C545.454 273.078 529.863 315.542 500.46 347.755L494.372 354.157Z" fill="#0DA6F5"/>
</svg>
